<?xml version="1.0" standalone="no"?>
<!DOCTYPE svg PUBLIC "-//W3C//DTD SVG 20010904//EN"
 "http://www.w3.org/TR/2001/REC-SVG-20010904/DTD/svg10.dtd">
<svg version="1.0" xmlns="http://www.w3.org/2000/svg"
 width="259.000000pt" height="259.000000pt" viewBox="0 0 259.000000 259.000000"
 preserveAspectRatio="xMidYMid meet">
<metadata>
Created by potrace 1.14, written by Peter Selinger 2001-2017
</metadata>
<g transform="translate(0.000000,259.000000) scale(0.100000,-0.100000)"
fill="#000000" stroke="none">
<path d="M1010 2457 c-175 -55 -297 -118 -367 -190 -141 -143 -286 -389 -338
-570 -49 -173 -57 -476 -20 -737 8 -57 20 -156 26 -220 12 -137 45 -363 59
-406 16 -48 57 -61 178 -57 l102 4 0 -86 0 -85 -183 0 c-247 0 -367 -9 -367
-27 0 -12 66 -13 433 -8 440 5 714 12 886 20 109 5 179 9 551 30 480 27 468
26 474 41 7 18 -45 18 -394 -1 -150 -8 -269 -10 -274 -5 -5 5 -5 29 0 57 l9
48 87 3 c64 2 96 -1 117 -13 21 -10 64 -16 138 -17 90 -1 120 2 178 22 93 31
128 66 143 145 20 106 32 237 32 366 0 115 -2 132 -26 183 -36 78 -50 86 -160
86 l-91 0 -7 218 c-10 312 -44 495 -125 667 -74 158 -152 252 -291 350 -109
77 -178 109 -335 155 -117 35 -158 42 -250 46 -95 4 -120 1 -185 -19z m366
-364 c74 -130 171 -209 337 -275 56 -22 104 -42 106 -44 2 -2 -4 -67 -14 -144
l-17 -139 26 -31 c14 -18 26 -40 26 -49 0 -28 -37 -69 -70 -76 -24 -5 -32 -15
-45 -55 -23 -70 -68 -132 -147 -204 -55 -50 -84 -68 -136 -86 -89 -29 -182
-35 -284 -20 -212 33 -355 120 -441 268 -25 42 -51 97 -57 121 -23 87 -50 267
-50 334 0 65 1 67 25 67 43 0 230 48 314 80 140 54 303 178 359 272 9 15 22
28 28 28 7 0 24 -21 40 -47z m1028 -1105 c18 -27 39 -149 30 -172 -5 -13 -25
-16 -119 -16 l-113 0 -22 91 c-12 50 -19 94 -15 97 8 8 93 19 167 21 49 1 60
-2 72 -21z m-315 -103 c26 -95 21 -115 -28 -115 -14 0 -59 -10 -99 -22 -88
-26 -92 -23 -92 73 0 56 3 69 24 88 27 26 110 60 147 61 24 0 27 -6 48 -85z
m-749 20 c-1 -31 -62 -75 -105 -75 -29 0 -75 43 -75 70 0 16 11 18 90 17 55
-1 90 -5 90 -12z m138 -49 c56 -35 148 -140 182 -208 44 -89 63 -190 64 -352
l1 -141 -85 -5 c-47 -3 -88 -3 -92 0 -4 3 -8 41 -10 85 -2 63 -6 80 -18 80
-12 0 -16 -18 -18 -86 l-3 -87 -132 -6 c-73 -3 -203 -8 -289 -11 l-157 -6 -3
68 c-2 52 -6 68 -18 68 -12 0 -16 -15 -18 -67 l-3 -68 -90 0 c-69 0 -91 3 -95
15 -8 19 23 277 40 340 35 127 92 230 167 302 46 43 168 113 197 113 9 0 24
-15 32 -33 22 -47 76 -80 123 -74 48 7 81 28 115 76 30 43 38 43 110 -3z m957
-198 c-4 -57 -9 -106 -11 -109 -2 -4 -14 -4 -27 -2 -58 11 -77 -79 -22 -107
17 -8 32 -16 33 -17 2 -1 -2 -19 -9 -40 -7 -23 -14 -32 -17 -23 -3 8 -10 18
-16 22 -38 26 -95 -16 -75 -54 13 -24 4 -38 -27 -38 -14 0 -23 4 -19 10 3 5 3
20 -1 34 -15 59 -94 34 -94 -30 0 -35 -1 -36 -31 -30 -17 3 -41 6 -52 6 -19 0
-19 1 -3 19 10 11 16 30 14 43 -2 18 -9 23 -32 23 -39 0 -56 -27 -33 -53 19
-21 22 -32 7 -32 -22 0 -79 147 -105 269 -14 69 -24 130 -21 136 11 29 272 72
450 74 l98 1 -7 -102z"/>
<path d="M1437 1693 c-18 -17 -3 -28 41 -30 26 -1 66 -4 90 -8 34 -5 42 -3 42
9 0 9 -15 19 -37 25 -43 12 -126 15 -136 4z"/>
<path d="M783 1648 c-27 -7 -43 -17 -43 -26 0 -12 8 -13 43 -6 23 4 67 9 97 9
41 1 55 5 55 16 0 18 -90 22 -152 7z"/>
<path d="M1490 1527 c-33 -11 -51 -46 -20 -38 50 12 91 12 104 1 16 -12 36 -6
36 11 0 10 -61 40 -77 38 -4 0 -24 -5 -43 -12z"/>
<path d="M816 1494 c-41 -23 -20 -40 29 -24 20 7 51 9 69 6 37 -7 51 1 35 21
-15 18 -97 16 -133 -3z"/>
<path d="M1164 1395 c-8 -20 2 -44 21 -51 24 -10 29 2 15 36 -14 33 -27 39
-36 15z"/>
<path d="M1355 1259 c-16 -11 -36 -23 -44 -28 -19 -12 -5 -46 25 -59 67 -31
119 2 112 70 -3 29 -7 33 -33 35 -16 1 -43 -7 -60 -18z m51 -55 c-6 -17 -47
-16 -53 1 -2 6 9 18 24 27 24 15 28 15 31 2 2 -8 1 -22 -2 -30z"/>
<path d="M1965 487 c-13 -10 -16 -21 -11 -40 10 -42 72 -43 82 -1 11 45 -31
69 -71 41z"/>
<path d="M2220 479 c-9 -16 -8 -26 5 -45 26 -39 75 -26 75 21 0 45 -60 63 -80
24z"/>
<path d="M2103 478 c-44 -21 -19 -88 32 -88 31 0 48 30 36 63 -7 19 -34 41
-44 36 -1 0 -12 -5 -24 -11z"/>
</g>
</svg>
